# xmcd
#
# Track frame offsets:
#	150
#	10984
#	26387
#	41325
#	62835
#	72230
#	86757
#	105380
#	113650
#	127882
#
# Disc length: 1948 seconds
#
# Revision: 1
# Processed by: cddbd v1.5.2PL0 Copyright (c) Steve Scherf et al.
# Submitted via: EasyCDDAExtractor 16.0.9.1
#
DISCID=75079a0a
DTITLE=Thomas Qaavigaq - "Eqqaamavassi"
DYEAR=1998
DGENRE=Grl
TTITLE0=Hainak
TTITLE1=Aanarraakkut
TTITLE2=Eqqissineq
TTITLE3=Eqqaamavassi
TTITLE4=Inuit
TTITLE5=Ulloq
TTITLE6=Qujahunga
TTITLE7=Tuhunn
TTITLE8=Paninnguaq
TTITLE9=Inuunerup sarfaa
EXTD=
EXTT0=
EXTT1=
EXTT2=
EXTT3=
EXTT4=
EXTT5=
EXTT6=
EXTT7=
EXTT8=
EXTT9=
PLAYORDER=
